<svg width="180" height="80" viewBox="0 0 180 80" fill="none" xmlns="http://www.w3.org/2000/svg">
<mask id="path-1-inside-1_2655_7545" fill="white">
<path d="M0 10C0 4.47715 4.47715 0 10 0H170C175.523 0 180 4.47715 180 10V70C180 75.5228 175.523 80 170 80H10C4.47716 80 0 75.5228 0 70V10Z"/>
</mask>
<path d="M0 10C0 4.47715 4.47715 0 10 0H170C175.523 0 180 4.47715 180 10V70C180 75.5228 175.523 80 170 80H10C4.47716 80 0 75.5228 0 70V10Z" fill="url(#paint0_linear_2655_7545)"/>
<g clip-path="url(#paint1_angular_2655_7545_clip_path)" data-figma-skip-parse="true" mask="url(#path-1-inside-1_2655_7545)"><g transform="matrix(0.09 0 0 0.04 90 40)"><foreignObject x="-1025" y="-1025" width="2050" height="2050"><div xmlns="http://www.w3.org/1999/xhtml" style="background:conic-gradient(from 90deg,rgba(18, 59, 99, 1) 0deg,rgba(37, 99, 235, 1) 360deg);height:100%;width:100%;opacity:1"></div></foreignObject></g></g><path d="M10 0V1H170V0V-1H10V0ZM180 10H179V70H180H181V10H180ZM170 80V79H10V80V81H170V80ZM0 70H1V10H0H-1V70H0ZM10 80V79C5.02944 79 1 74.9706 1 70H0H-1C-1 76.0751 3.92487 81 10 81V80ZM180 70H179C179 74.9706 174.971 79 170 79V80V81C176.075 81 181 76.0751 181 70H180ZM170 0V1C174.971 1 179 5.02944 179 10H180H181C181 3.92487 176.075 -1 170 -1V0ZM10 0V-1C3.92487 -1 -1 3.92487 -1 10H0H1C1 5.02944 5.02944 1 10 1V0Z" data-figma-gradient-fill="{&#34;type&#34;:&#34;GRADIENT_ANGULAR&#34;,&#34;stops&#34;:[{&#34;color&#34;:{&#34;r&#34;:0.070588238537311554,&#34;g&#34;:0.23137255012989044,&#34;b&#34;:0.38823530077934265,&#34;a&#34;:1.0},&#34;position&#34;:0.0},{&#34;color&#34;:{&#34;r&#34;:0.14509804546833038,&#34;g&#34;:0.38823530077934265,&#34;b&#34;:0.92156863212585449,&#34;a&#34;:1.0},&#34;position&#34;:1.0}],&#34;transform&#34;:{&#34;m00&#34;:180.0,&#34;m01&#34;:0.0,&#34;m02&#34;:0.0,&#34;m10&#34;:0.0,&#34;m11&#34;:80.0,&#34;m12&#34;:0.0},&#34;opacity&#34;:1.0,&#34;blendMode&#34;:&#34;NORMAL&#34;,&#34;stopsVar&#34;:[{&#34;color&#34;:{&#34;r&#34;:0.070588238537311554,&#34;g&#34;:0.23137255012989044,&#34;b&#34;:0.38823530077934265,&#34;a&#34;:1.0},&#34;position&#34;:0.0},{&#34;color&#34;:{&#34;r&#34;:0.14509804546833038,&#34;g&#34;:0.38823530077934265,&#34;b&#34;:0.92156863212585449,&#34;a&#34;:1.0},&#34;position&#34;:1.0}],&#34;visible&#34;:true}" mask="url(#path-1-inside-1_2655_7545)"/>
<path d="M53.5803 50V31.8182H60.7536C62.1326 31.8182 63.3074 32.0816 64.2781 32.6083C65.2487 33.1291 65.9885 33.8542 66.4975 34.7834C67.0124 35.7067 67.2699 36.772 67.2699 37.9794C67.2699 39.1868 67.0095 40.2521 66.4886 41.1754C65.9678 42.0987 65.2132 42.8178 64.2248 43.3327C63.2423 43.8477 62.0527 44.1051 60.6559 44.1051H56.0838V41.0245H60.0344C60.7743 41.0245 61.3839 40.8973 61.8633 40.6428C62.3486 40.3823 62.7096 40.0243 62.9464 39.5685C63.189 39.1069 63.3104 38.5772 63.3104 37.9794C63.3104 37.3757 63.189 36.849 62.9464 36.3991C62.7096 35.9434 62.3486 35.5913 61.8633 35.3427C61.378 35.0882 60.7624 34.9609 60.0167 34.9609H57.4244V50H53.5803ZM69.6958 50V36.3636H73.3623V38.7429H73.5044C73.7529 37.8965 74.1702 37.2573 74.7561 36.8253C75.3421 36.3873 76.0168 36.1683 76.7803 36.1683C76.9697 36.1683 77.1739 36.1802 77.3928 36.2038C77.6118 36.2275 77.8042 36.2601 77.9699 36.3015V39.6573C77.7923 39.604 77.5467 39.5567 77.233 39.5153C76.9194 39.4738 76.6323 39.4531 76.3719 39.4531C75.8155 39.4531 75.3184 39.5745 74.8804 39.8171C74.4484 40.0539 74.1051 40.3853 73.8506 40.8114C73.602 41.2376 73.4777 41.7288 73.4777 42.2852V50H69.6958ZM85.4517 50.2663C84.0727 50.2663 82.8801 49.9734 81.8739 49.3874C80.8737 48.7956 80.1013 47.9729 79.5568 46.9194C79.0123 45.86 78.7401 44.6319 78.7401 43.2351C78.7401 41.8265 79.0123 40.5954 79.5568 39.5419C80.1013 38.4825 80.8737 37.6598 81.8739 37.0739C82.8801 36.482 84.0727 36.1861 85.4517 36.1861C86.8307 36.1861 88.0204 36.482 89.0206 37.0739C90.0268 37.6598 90.8021 38.4825 91.3466 39.5419C91.8911 40.5954 92.1634 41.8265 92.1634 43.2351C92.1634 44.6319 91.8911 45.86 91.3466 46.9194C90.8021 47.9729 90.0268 48.7956 89.0206 49.3874C88.0204 49.9734 86.8307 50.2663 85.4517 50.2663ZM85.4695 47.3366C86.0968 47.3366 86.6206 47.1591 87.0408 46.804C87.4611 46.4429 87.7777 45.9517 87.9908 45.3303C88.2098 44.7088 88.3192 44.0015 88.3192 43.2085C88.3192 42.4154 88.2098 41.7081 87.9908 41.0866C87.7777 40.4652 87.4611 39.974 87.0408 39.6129C86.6206 39.2519 86.0968 39.0714 85.4695 39.0714C84.8362 39.0714 84.3035 39.2519 83.8714 39.6129C83.4453 39.974 83.1228 40.4652 82.9038 41.0866C82.6907 41.7081 82.5842 42.4154 82.5842 43.2085C82.5842 44.0015 82.6907 44.7088 82.9038 45.3303C83.1228 45.9517 83.4453 46.4429 83.8714 46.804C84.3035 47.1591 84.8362 47.3366 85.4695 47.3366ZM94.6225 36.3636H98.4045V50.6747C98.4045 51.7282 98.1973 52.5805 97.783 53.2315C97.3687 53.8826 96.7739 54.359 95.9986 54.6609C95.2292 54.9627 94.3088 55.1136 93.2376 55.1136C93.1074 55.1136 92.9831 55.1107 92.8647 55.1048C92.7404 55.1048 92.6102 55.1018 92.4741 55.0959V52.1396C92.5747 52.1455 92.6635 52.1484 92.7404 52.1484C92.8114 52.1544 92.8884 52.1573 92.9712 52.1573C93.5808 52.1573 94.007 52.0271 94.2496 51.7667C94.4982 51.5122 94.6225 51.1275 94.6225 50.6126V36.3636ZM96.5046 34.6058C95.9483 34.6058 95.4689 34.4194 95.0664 34.0465C94.6639 33.6677 94.4627 33.215 94.4627 32.6882C94.4627 32.1674 94.6639 31.7205 95.0664 31.3477C95.4689 30.9689 95.9483 30.7795 96.5046 30.7795C97.0728 30.7795 97.5552 30.9689 97.9517 31.3477C98.3542 31.7205 98.5554 32.1674 98.5554 32.6882C98.5554 33.215 98.3542 33.6677 97.9517 34.0465C97.5552 34.4194 97.0728 34.6058 96.5046 34.6058ZM107.649 50.2663C106.246 50.2663 105.038 49.9822 104.026 49.4141C103.02 48.84 102.245 48.0291 101.7 46.9815C101.156 45.928 100.884 44.6822 100.884 43.244C100.884 41.8413 101.156 40.6102 101.7 39.5508C102.245 38.4914 103.011 37.6657 104 37.0739C104.994 36.482 106.16 36.1861 107.498 36.1861C108.397 36.1861 109.235 36.3311 110.01 36.6211C110.791 36.9052 111.472 37.3343 112.052 37.9084C112.638 38.4825 113.094 39.2045 113.419 40.0746C113.745 40.9387 113.907 41.9508 113.907 43.1108V44.1495H102.393V41.8058H110.347C110.347 41.2612 110.229 40.7789 109.992 40.3587C109.756 39.9384 109.427 39.61 109.007 39.3732C108.593 39.1306 108.11 39.0092 107.56 39.0092C106.986 39.0092 106.477 39.1424 106.033 39.4087C105.595 39.6692 105.252 40.0213 105.003 40.4652C104.754 40.9032 104.627 41.3915 104.621 41.93V44.1584C104.621 44.8331 104.745 45.4161 104.994 45.9073C105.249 46.3986 105.607 46.7773 106.068 47.0437C106.53 47.31 107.077 47.4432 107.711 47.4432C108.131 47.4432 108.516 47.384 108.865 47.2656C109.214 47.1473 109.513 46.9697 109.761 46.733C110.01 46.4962 110.199 46.2062 110.33 45.8629L113.828 46.0938C113.65 46.9342 113.286 47.6681 112.736 48.2955C112.191 48.9169 111.487 49.4022 110.623 49.7514C109.764 50.0947 108.773 50.2663 107.649 50.2663ZM123.629 36.3636V39.2045H115.417V36.3636H123.629ZM117.281 33.0966H121.063V45.8097C121.063 46.1589 121.116 46.4311 121.223 46.6264C121.329 46.8158 121.477 46.949 121.667 47.0259C121.862 47.1029 122.087 47.1413 122.341 47.1413C122.519 47.1413 122.696 47.1265 122.874 47.0969C123.052 47.0614 123.188 47.0348 123.282 47.017L123.877 49.8313C123.688 49.8905 123.421 49.9586 123.078 50.0355C122.735 50.1184 122.318 50.1687 121.826 50.1864C120.915 50.2219 120.116 50.1006 119.429 49.8224C118.749 49.5443 118.219 49.1122 117.84 48.5263C117.461 47.9403 117.275 47.2005 117.281 46.3068V33.0966ZM132.107 50.2663C130.728 50.2663 129.535 49.9734 128.529 49.3874C127.529 48.7956 126.757 47.9729 126.212 46.9194C125.668 45.86 125.395 44.6319 125.395 43.2351C125.395 41.8265 125.668 40.5954 126.212 39.5419C126.757 38.4825 127.529 37.6598 128.529 37.0739C129.535 36.482 130.728 36.1861 132.107 36.1861C133.486 36.1861 134.676 36.482 135.676 37.0739C136.682 37.6598 137.457 38.4825 138.002 39.5419C138.546 40.5954 138.819 41.8265 138.819 43.2351C138.819 44.6319 138.546 45.86 138.002 46.9194C137.457 47.9729 136.682 48.7956 135.676 49.3874C134.676 49.9734 133.486 50.2663 132.107 50.2663ZM132.125 47.3366C132.752 47.3366 133.276 47.1591 133.696 46.804C134.116 46.4429 134.433 45.9517 134.646 45.3303C134.865 44.7088 134.975 44.0015 134.975 43.2085C134.975 42.4154 134.865 41.7081 134.646 41.0866C134.433 40.4652 134.116 39.974 133.696 39.6129C133.276 39.2519 132.752 39.0714 132.125 39.0714C131.491 39.0714 130.959 39.2519 130.527 39.6129C130.101 39.974 129.778 40.4652 129.559 41.0866C129.346 41.7081 129.239 42.4154 129.239 43.2085C129.239 44.0015 129.346 44.7088 129.559 45.3303C129.778 45.9517 130.101 46.4429 130.527 46.804C130.959 47.1591 131.491 47.3366 132.125 47.3366ZM152.624 40.2521L149.161 40.4652C149.102 40.1693 148.975 39.9029 148.78 39.6662C148.584 39.4235 148.327 39.2312 148.007 39.0891C147.694 38.9412 147.318 38.8672 146.88 38.8672C146.294 38.8672 145.8 38.9915 145.397 39.2401C144.995 39.4827 144.793 39.8082 144.793 40.2166C144.793 40.5421 144.924 40.8174 145.184 41.0423C145.444 41.2672 145.891 41.4477 146.525 41.5838L148.993 42.081C150.318 42.3532 151.307 42.7912 151.958 43.3949C152.609 43.9986 152.934 44.7917 152.934 45.7741C152.934 46.6679 152.671 47.4521 152.144 48.1268C151.623 48.8015 150.907 49.3282 149.996 49.707C149.09 50.0799 148.046 50.2663 146.862 50.2663C145.057 50.2663 143.619 49.8905 142.547 49.1388C141.482 48.3813 140.858 47.3514 140.674 46.0494L144.394 45.854C144.506 46.4045 144.779 46.8247 145.211 47.1147C145.643 47.3988 146.196 47.5408 146.871 47.5408C147.534 47.5408 148.066 47.4136 148.469 47.1591C148.877 46.8987 149.084 46.5643 149.09 46.1559C149.084 45.8126 148.939 45.5315 148.655 45.3125C148.371 45.0876 147.933 44.916 147.341 44.7976L144.98 44.3271C143.648 44.0607 142.657 43.5991 142.006 42.9421C141.361 42.2852 141.038 41.4477 141.038 40.4297C141.038 39.5537 141.275 38.7991 141.748 38.1658C142.228 37.5326 142.899 37.0443 143.764 36.701C144.634 36.3577 145.652 36.1861 146.818 36.1861C148.54 36.1861 149.895 36.5501 150.884 37.2781C151.878 38.006 152.458 38.9974 152.624 40.2521Z" fill="url(#paint2_linear_2655_7545)"/>
<g clip-path="url(#clip0_2655_7545)">
<path d="M38.0155 42.8907C41.6202 38.8407 43.1374 35.5719 43.7046 33.1751C44.0327 31.7891 44.039 30.7063 43.9546 29.9485C43.9218 29.6512 43.8654 29.3571 43.7858 29.0688C43.7525 28.9467 43.7118 28.8266 43.664 28.7094C43.5499 28.4532 43.4015 28.3422 43.114 28.2469C43.0317 28.22 42.9482 28.1966 42.864 28.1766C42.571 28.1068 42.2733 28.0582 41.9733 28.0313C41.2077 27.9626 40.114 27.9844 38.7233 28.3251C36.3233 28.9094 33.0702 30.4235 29.0968 33.9563L25.3468 34.3282H25.3374C24.4363 34.4284 23.5963 34.833 22.9562 35.4751L19.2343 39.2032C19.1164 39.3219 19.0387 39.4746 19.0121 39.6398C18.9855 39.8049 19.0114 39.9743 19.0861 40.124C19.1608 40.2737 19.2805 40.3962 19.4284 40.4743C19.5764 40.5524 19.7451 40.5822 19.9108 40.5594L22.8733 40.136C23.3108 40.0735 23.7983 40.1563 24.3655 40.3422C24.728 40.461 25.0483 40.5922 25.389 40.7297L25.7062 40.8594C26.0124 42.1344 26.7374 43.3282 27.6983 44.2891C28.6562 45.2485 29.8483 45.9766 31.1218 46.2844L31.2499 46.6001C31.389 46.9407 31.5202 47.2626 31.639 47.6266C31.8233 48.1938 31.9077 48.6829 31.8452 49.1204L31.4218 52.0891C31.3994 52.2545 31.4294 52.4228 31.5075 52.5704C31.5855 52.7179 31.7078 52.8373 31.8571 52.9119C32.0065 52.9865 32.1754 53.0125 32.3403 52.9863C32.5051 52.9601 32.6577 52.8829 32.7765 52.7657L36.4983 49.0376C37.139 48.3969 37.5421 47.5547 37.6421 46.6532L38.0155 42.8907ZM38.1874 37.111C36.9421 38.361 35.1718 38.6126 34.2374 37.6766C33.303 36.7391 33.5562 34.9688 34.8015 33.7204C36.0483 32.4719 37.8171 32.2204 38.7515 33.1563C39.6858 34.0922 39.4343 35.8626 38.189 37.111H38.1874Z" fill="#60A5FA"/>
<path d="M27.1329 44.8547C27.9622 45.6951 28.9123 46.4071 29.9516 46.9672C28.2048 48.5407 22.2501 50.136 22.0548 49.9407C21.8579 49.7422 23.2063 43.3954 24.9282 41.8469C25.4688 42.925 26.236 43.9563 27.1329 44.8547Z" fill="#60A5FA"/>
</g>
<defs>
<clipPath id="paint1_angular_2655_7545_clip_path"><path d="M10 0V1H170V0V-1H10V0ZM180 10H179V70H180H181V10H180ZM170 80V79H10V80V81H170V80ZM0 70H1V10H0H-1V70H0ZM10 80V79C5.02944 79 1 74.9706 1 70H0H-1C-1 76.0751 3.92487 81 10 81V80ZM180 70H179C179 74.9706 174.971 79 170 79V80V81C176.075 81 181 76.0751 181 70H180ZM170 0V1C174.971 1 179 5.02944 179 10H180H181C181 3.92487 176.075 -1 170 -1V0ZM10 0V-1C3.92487 -1 -1 3.92487 -1 10H0H1C1 5.02944 5.02944 1 10 1V0Z"/></clipPath><linearGradient id="paint0_linear_2655_7545" x1="0" y1="40" x2="180" y2="40" gradientUnits="userSpaceOnUse">
<stop offset="0.572157" stop-color="#030E1D"/>
<stop offset="1" stop-color="#0B1B33"/>
</linearGradient>
<linearGradient id="paint2_linear_2655_7545" x1="52" y1="40.5" x2="160" y2="40.5" gradientUnits="userSpaceOnUse">
<stop stop-color="#E5E7EB"/>
<stop offset="0.587012" stop-color="#60A5FA"/>
<stop offset="0.756102" stop-color="#2563EB"/>
</linearGradient>
<clipPath id="clip0_2655_7545">
<rect width="25" height="25" fill="white" transform="translate(19 28)"/>
</clipPath>
</defs>
</svg>
